<svg width="32" height="31" viewBox="0 0 32 31" fill="none" xmlns="http://www.w3.org/2000/svg">
<path d="M10.1717 3.3088L8.60373 0L6.67733 0.913067L8.24533 4.22187L10.1717 3.3088ZM4.93653 5.69173L3.36853 2.38507L1.44 3.29813L3.008 6.6048L4.93653 5.69173ZM15.392 5.86453L13.8859 2.40213L11.9296 3.2512L13.4357 6.7136L15.392 5.86453ZM7.8208 7.33653C8.42336 7.08062 9.07548 6.96256 9.72952 6.99098C10.3836 7.0194 11.023 7.19358 11.6011 7.5008L15.1424 9.26293C16.8192 10.1568 17.5403 12.4288 16.1109 14.0331C15.4709 14.8288 14.4811 15.1637 13.5936 15.1637H12.0235C11.6139 15.1637 11.3067 15.3216 11.1637 15.5051L11.1509 15.52L10.24 16.6443C9.59787 17.4571 8.59947 17.7963 7.70347 17.7963C5.7472 17.7963 4.16 15.9488 4.56747 14.0032L5.3504 10.2379L5.37173 10.1525C5.70667 9.03467 6.54293 7.86133 7.8208 7.33653ZM3.49653 11.0891L1.92853 7.77813L0 8.6912L1.568 12L3.49653 11.0891ZM23.3963 16.5205L24.9643 13.2139L23.0379 12.2965L21.4699 15.6053L23.3963 16.5205ZM28.6336 18.9035L30.2016 15.5968L28.2731 14.6816L26.7051 17.9904L28.6336 18.9035ZM18.2059 19.0123L19.712 15.5499L17.7557 14.6987L16.2475 18.1611L18.2059 19.0123ZM19.9659 19.9616C20.525 19.5534 21.1866 19.3087 21.8767 19.2548C22.5669 19.2009 23.2585 19.34 23.8741 19.6565C25.1349 20.1984 25.9563 21.376 26.2784 22.6112L26.2912 22.6624L27.0763 26.4256C27.4731 28.3243 26.0736 30.2208 23.9381 30.2208C23.0421 30.2208 22.0437 29.8795 21.4016 29.0688L20.4779 27.9296C20.3349 27.7461 20.0299 27.5861 19.6181 27.5861H18.0459C17.1499 27.5861 16.1472 27.2448 15.5051 26.4235C15.2199 26.061 15.0176 25.6404 14.9124 25.1913C14.8073 24.7422 14.8018 24.2755 14.8963 23.8241C14.9909 23.3726 15.1832 22.9474 15.4598 22.5783C15.7363 22.2091 16.0904 21.9051 16.4971 21.6875L16.5248 21.6725L19.9659 19.9616ZM30.0715 24.3008L31.6416 20.9941L29.7131 20.0768L28.1451 23.3856L30.0715 24.3008Z" fill="#1F2933"/>
</svg>
